# xmcd CD database file
#
# Track frame offsets:
#	150
#	91690
#	180098
#	240450
#
# Disc length: 4394 seconds
#
# Revision: 0
# Processed by: cddbd v1.5.2PL0 Copyright (c) Steve Scherf et al.
# Submitted via: CDex 1.51
#
DISCID=1b112804
DTITLE=Electric Air Project - Entspannung in der Natur
DYEAR=1900
DGENRE=New Age
TTITLE0=Vogelstimmen im Wald bei Sonnenaufgang
TTITLE1=Spaziergang am Waldbach
TTITLE2=Ein warmer Sommerregen
TTITLE3=Meeresrauschen
EXTD=
EXTT0=
EXTT1=
EXTT2=
EXTT3=
PLAYORDER=
